<svg width="32" height="32" viewBox="0 0 32 32" xmlns="http://www.w3.org/2000/svg">
  <defs>
    <linearGradient id="logoGradient" x1="0%" y1="0%" x2="100%" y2="100%">
      <stop offset="0%" style="stop-color:#ffffff;stop-opacity:1" />
      <stop offset="100%" style="stop-color:#bae6fd;stop-opacity:1" />
    </linearGradient>
    
    <radialGradient id="backgroundGradient" cx="50%" cy="50%" r="50%">
      <stop offset="0%" style="stop-color:#0f172a;stop-opacity:1" />
      <stop offset="100%" style="stop-color:#1e293b;stop-opacity:1" />
    </radialGradient>
  </defs>
  
  <!-- Background -->
  <rect width="32" height="32" rx="4" fill="url(#backgroundGradient)"/>
  
  <!-- Circuit board lines -->
  <g opacity="0.6">
    <line x1="16" y1="28" x2="16" y2="8" stroke="#3b82f6" stroke-width="1" opacity="0.8"/>
    <line x1="8" y1="16" x2="24" y2="16" stroke="#3b82f6" stroke-width="0.8" opacity="0.7"/>
  </g>
  
  <!-- Energy nodes -->
  <circle cx="16" cy="12" r="1.5" fill="#f97316" opacity="0.9"/>
  <circle cx="16" cy="20" r="1.5" fill="#f97316" opacity="0.9"/>
  <circle cx="12" cy="16" r="1" fill="#f97316" opacity="0.7"/>
  <circle cx="20" cy="16" r="1" fill="#f97316" opacity="0.7"/>
  
  <!-- Main Logo - Stylized "E" -->
  <g transform="translate(16, 16)">
    <path d="M-8,-6 L8,-6 L8,-4 L-4,-4 L-4,-1 L6,-1 L6,1 L-4,1 L-4,4 L8,4 L8,6 L-8,6 Z" 
          fill="url(#logoGradient)" stroke="#ffffff" stroke-width="0.5"/>
    
    <!-- Energy flow lines -->
    <line x1="-6" y1="-5" x2="6" y2="-5" stroke="#3b82f6" stroke-width="0.8"/>
    <line x1="-6" y1="0" x2="5" y2="0" stroke="#3b82f6" stroke-width="0.8"/>
    <line x1="-6" y1="5" x2="6" y2="5" stroke="#3b82f6" stroke-width="0.8"/>
  </g>
</svg> 